<svg xmlns="http://www.w3.org/2000/svg" viewBox="0 0 160 160"><path fill="#ff6763" d="M53.5 0 0 53.5V18.8C0 8.4 8.4 0 18.8 0z"/><path fill="#ffb042" d="M106.5 0 0 106.5V53L53 0z"/><path fill="#fcfd96" d="m154.4 5.4-149 149c-3.3-3.4-5.4-8-5.4-13.2v-34.8L106.4 0h34.8q8 .1 13.2 5.4"/><path fill="#9ee09c" d="M160 18.8v34.6L53.4 160H18.8c-5.2 0-10-2.1-13.3-5.5l149-149q5.3 5.2 5.5 13.3"/><path fill="#9ec1ce" d="M160 53.1v53.4L106.5 160H53.1z"/><path fill="#cc99c6" d="M160 106.5v34.7c0 10.4-8.4 18.8-18.8 18.8h-34.7z"/><path fill="#15273c" d="M82.2 91.4a422 422 0 0 0-25.9-23.1c-4.2-3.5-8-7.5-12.2-11.1-2.5-2.1-5.2-4.6-8.4-5.6q-1.3-.4-2.8-.4t-2.7.3v23.8a65 65 0 0 0 14 40.5A75 75 0 0 0 66.9 133q7.8 4.4 12.7 6.2a142 142 0 0 0 20.7-10.8q4-2.5 5-7v-.1c1-4.9-2-9.8-23-30m20.3-59.8Q90 27 79.5 22A286 286 0 0 1 56 31.6l-3.7 1.3c2 5.4 3.2 8.1 4.1 10.2 2.8 6.4 7 15.6 9.9 20.7a66 66 0 0 0 12.6 15.7 90 90 0 0 0 26.4 17q3.7 1.7 7.7 2.7a29 29 0 0 1 9.6 4.4 64 64 0 0 0 6.4-28.3V39.6q-12.3-3-26.5-8Z"/></svg>
