<?xml version="1.0" encoding="UTF-8"?>
<svg id="Layer_1" data-name="Layer 1" xmlns="http://www.w3.org/2000/svg" viewBox="0 0 160 160">
  <defs>
    <style>
      .cls-1 {
        fill: #15273c;
        stroke: #fff;
        stroke-miterlimit: 10;
        stroke-width: 4px;
      }
    </style>
  </defs>
  <path class="cls-1" d="M82.64,93.06c-14.44-13.76-22.94-21.03-29.89-26.69-4.92-4.01-9.28-8.66-14.13-12.76-2.88-2.43-5.93-5.27-9.61-6.42-1.06-.33-2.14-.49-3.25-.54-1.17-.05-2.23.11-3.18.36v27.53c0,8.21,1.23,16.06,3.7,23.55,1.63,4.96,4.68,13.96,12.42,23.19,7.85,9.36,16.69,14.36,26.25,19.77,5.89,3.34,11.03,5.69,14.61,7.2,6.32-2.64,11.39-5.22,15.02-7.2,3.35-1.82,6.29-3.59,8.87-5.26,2.92-1.89,5.09-4.81,5.82-8.2,0-.02,0-.03.01-.05,1.18-5.57-2.32-11.27-26.66-34.47ZM106.06,24.11c-9.67-3.5-18.51-7.29-26.48-11.11-6.64,3.06-13.8,6.09-21.45,8.99-1.88.73-3.81,1.43-5.74,2.12-1.46.52-2.89,1.03-4.32,1.51,2.36,6.17,3.75,9.33,4.79,11.75,3.17,7.4,8.03,18.01,11.38,23.87,3.85,6.75,8.87,12.79,14.56,18.06,5.07,4.69,10.66,8.79,16.55,12.37,4.49,2.73,9.15,5.17,13.93,7.34,2.91,1.32,5.82,2.32,8.92,3.1,2.81.71,5.58,1.83,8.11,3.25,1.1.61,2.07,1.23,2.89,1.8,4.93-10.17,7.39-21.04,7.39-32.63v-41.25c-9.39-2.25-19.64-5.24-30.52-9.18Z"/>
</svg>