<?xml version="1.0" encoding="UTF-8"?>
<svg id="Layer_1" data-name="Layer 1" xmlns="http://www.w3.org/2000/svg" viewBox="0 0 160 160">
  <defs>
    <style>
      .cls-1 {
        fill: #9ec1ce;
      }

      .cls-2 {
        fill: #fcfd96;
      }

      .cls-3 {
        fill: #9ee09c;
      }

      .cls-4 {
        fill: #ff6763;
      }

      .cls-5 {
        fill: #ffb042;
      }

      .cls-6 {
        fill: #15273c;
      }

      .cls-7 {
        fill: #cc99c6;
      }
    </style>
  </defs>
  <g>
    <rect class="cls-4" x="-5.54" y="-99.77" width="37.81" height="226.27" transform="translate(13.37 -5.54) rotate(45)"/>
    <rect class="cls-5" x="20.98" y="-73.25" width="37.81" height="226.27" transform="translate(39.88 -16.52) rotate(45)"/>
    <rect class="cls-2" x="47.64" y="-46.59" width="37.81" height="226.27" transform="translate(66.55 -27.57) rotate(45)"/>
    <rect class="cls-3" x="74.42" y="-19.81" width="37.81" height="226.27" transform="translate(93.32 -38.66) rotate(45)"/>
    <rect class="cls-1" x="101" y="6.77" width="37.81" height="226.27" transform="translate(119.91 -49.67) rotate(45)"/>
    <rect class="cls-7" x="127.73" y="33.5" width="37.81" height="226.27" transform="translate(146.63 -60.74) rotate(45)"/>
  </g>
  <path class="cls-6" d="M81.89,90c-10.89-10.38-17.3-15.86-22.54-20.13-3.71-3.02-7-6.53-10.65-9.62-2.17-1.83-4.48-3.98-7.25-4.84-.8-.25-1.62-.37-2.45-.4-.88-.04-1.68.08-2.4.27v20.76c0,6.19.93,12.11,2.79,17.76,1.23,3.74,3.53,10.53,9.37,17.49,5.92,7.06,12.59,10.83,19.8,14.91,4.44,2.52,8.32,4.29,11.02,5.43,4.77-1.99,8.59-3.94,11.33-5.43,2.53-1.38,4.74-2.71,6.69-3.96,2.2-1.42,3.84-3.63,4.39-6.19,0-.01,0-.03,0-.04.89-4.2-1.75-8.5-20.11-26ZM99.55,38c-7.29-2.64-13.96-5.5-19.97-8.38-5.01,2.31-10.41,4.59-16.18,6.78-1.42.55-2.87,1.08-4.33,1.6-1.1.39-2.18.78-3.26,1.14,1.78,4.65,2.83,7.04,3.61,8.86,2.39,5.58,6.06,13.58,8.58,18,2.9,5.09,6.69,9.64,10.98,13.62,3.82,3.54,8.04,6.63,12.48,9.33,3.38,2.06,6.9,3.9,10.51,5.54,2.2,1,4.39,1.75,6.73,2.34,2.12.54,4.21,1.38,6.11,2.45.83.46,1.56.93,2.18,1.36,3.72-7.67,5.57-15.87,5.57-24.61v-31.11c-7.08-1.7-14.81-3.95-23.02-6.92Z"/>
</svg>