<?xml version="1.0" encoding="UTF-8"?>
<svg id="Layer_1" data-name="Layer 1" xmlns="http://www.w3.org/2000/svg" viewBox="0 0 404.03 109.03">
  <defs>
    <style>
      .cls-1 {
        letter-spacing: 0em;
      }

      .cls-2 {
        font-family: Lexend-Black, Lexend;
        font-size: 58.25px;
        font-variation-settings: 'wght' 900;
        font-weight: 800;
      }

      .cls-2, .cls-3 {
        fill: #15273c;
      }

      .cls-4 {
        letter-spacing: 0em;
      }
    </style>
  </defs>
  <path class="cls-3" d="M57.85,61.99c-8.67-8.27-13.78-12.63-17.95-16.03-2.96-2.41-5.57-5.2-8.49-7.66-1.73-1.46-3.56-3.17-5.77-3.86-.63-.2-1.29-.29-1.95-.32-.7-.03-1.34.06-1.91.22v16.53c0,4.93.74,9.65,2.22,14.15.98,2.98,2.81,8.39,7.46,13.93,4.72,5.62,10.03,8.63,15.77,11.88,3.54,2.01,6.63,3.42,8.78,4.32,3.8-1.58,6.84-3.14,9.02-4.32,2.01-1.1,3.78-2.15,5.33-3.16,1.75-1.13,3.06-2.89,3.5-4.93,0-.01,0-.02,0-.03.71-3.35-1.39-6.77-16.02-20.71ZM71.91,20.57c-5.81-2.1-11.12-4.38-15.91-6.67-3.99,1.84-8.29,3.66-12.89,5.4-1.13.44-2.29.86-3.45,1.27-.88.31-1.74.62-2.6.91,1.42,3.7,2.25,5.61,2.88,7.06,1.9,4.44,4.83,10.82,6.83,14.34,2.31,4.06,5.33,7.68,8.75,10.85,3.04,2.82,6.4,5.28,9.94,7.43,2.7,1.64,5.5,3.1,8.37,4.41,1.75.8,3.5,1.39,5.36,1.86,1.69.43,3.35,1.1,4.87,1.95.66.37,1.24.74,1.74,1.08,2.96-6.11,4.44-12.64,4.44-19.6v-24.78c-5.64-1.35-11.8-3.15-18.33-5.51Z"/>
  <text class="cls-2" transform="translate(114.77 74.62)"><tspan class="cls-4" x="0" y="0">A</tspan><tspan x="39.61" y="0">u</tspan><tspan class="cls-1" x="78.58" y="0">t</tspan><tspan x="102.11" y="0">oMod</tspan></text>
</svg>
